<?xml version="1.0" encoding="utf-8"?>
<svg version="1.1" xmlns:xlink="http://www.w3.org/1999/xlink" width="9px" height="10px" xmlns="http://www.w3.org/2000/svg">
  <g transform="matrix(1 0 0 1 -71 -299 )">
    <path d="M 1.21112119163424 0.253996564202335  C 0.978662646752513 0.254251081319492  0.79037647764889 0.442812425670146  0.790461444552529 0.675271094357978  C 0.790460995266919 0.908150033132086  0.978703406095834 1.09646102310387  1.21096751848249 1.09654562451362  L 7.66825624027237 1.09654562451362  C 7.90052034087735 1.09646100645796  8.08876273333231 0.908150021367454  8.08876273333231 0.675885905348526  C 8.08884733739336 0.442872362613558  7.90065473993143 0.254335837994438  7.66825624027237 0.253996564202335  L 1.21112119163424 0.253996564202335  Z M 7.66825624027237 1.93832622859922  L 1.21112119163424 1.93832622859922  C 0.978722691975188 1.93866550239132  0.790530094513249 2.12720202701045  0.790615147859922 2.35960075875487  C 0.790530077867329 2.59199950227134  0.978722680197043 2.78053604526295  1.21112119163424 2.78087531906615  L 7.66840991342412 2.78087531906615  C 7.90104341426614 2.78083288886988  8.08960762908885 2.59223427854413  8.08960762908885 2.35960077383268  C 8.08960762908885 2.1269372631384  7.90099658754253 1.93832622159208  7.66833307684825 1.93832622159208  Z M 8.08891624001738 4.04362301871454  C 8.08891624001738 3.81127409148377  7.90060515205526 3.62289432290268  7.66825624027237 3.6228095963035  L 1.21112119163424 3.6228095963035  C 0.978857091012046 3.62289421433483  0.79061469853022 3.81120519943247  0.79061469853022 4.04346931546861  C 0.790530094513253 4.2764828883592  0.978722691975188 4.46501941297834  1.21112119163424 4.46535868677043  L 7.66840991342412 4.46535868677043  C 7.90080842486413 4.46501942960278  8.08900104068077 4.27648290011588  8.08891598735409 4.04408415661479  Z M 5.84314309143969 6.43048680350194  L 5.84314309143969 6.14907356809339  L 5.56249831225681 6.14907356809339  L 5.56249831225681 5.86858252237354  L 5.28185356322957 5.86858252237354  L 5.28185356322957 5.58793774319066  L 5.00136248735408 5.58793774319066  L 5.00136248735408 5.30729296400778  L 4.7207177081712 5.30729296400778  L 4.7207177081712 5.02664821498054  L 4.44007295914396 5.02664821498054  L 4.44007295914396 5.30729296400778  L 4.1586597237354 5.30729296400778  L 4.1586597237354 5.58793774319066  L 3.87801494455252 5.58793774319066  L 3.87801494455252 5.86858252237354  L 3.59737019552529 5.86858252237354  L 3.59737019552529 6.14907356809339  L 3.3168791196498 6.14907356809339  L 3.3168791196498 6.43048680350194  L 3.03623434046692 6.43048680350194  L 3.03623434046692 6.71113158268483  L 3.87801494455253 6.71113158268483  L 3.87801494455253 9.51804033365759  L 5.28185356322957 9.51804033365759  L 5.28185356322957 6.71113158268483  L 6.12378784046692 6.71113158268483  L 6.12378784046692 6.43048680350194  L 5.84314309143969 6.43048680350194  Z " fill-rule="nonzero" fill="#aaaaaa" stroke="none" transform="matrix(1 0 0 1 71 299 )" />
  </g>
</svg>