<?xml version="1.0" encoding="utf-8"?>
<svg version="1.1" xmlns:xlink="http://www.w3.org/1999/xlink" width="77px" height="54px" xmlns="http://www.w3.org/2000/svg">
  <g transform="matrix(1 0 0 1 -37 -274 )">
    <path d="M 38 277  A 2 2 0 0 1 40 275 L 111 275  A 2 2 0 0 1 113 277 L 113 325  A 2 2 0 0 1 111 327 L 40 327  A 2 2 0 0 1 38 325 L 38 277  Z " fill-rule="nonzero" fill="#ffffff" stroke="none" />
    <path d="M 37.5 277  A 2.5 2.5 0 0 1 40 274.5 L 111 274.5  A 2.5 2.5 0 0 1 113.5 277 L 113.5 325  A 2.5 2.5 0 0 1 111 327.5 L 40 327.5  A 2.5 2.5 0 0 1 37.5 325 L 37.5 277  Z " stroke-width="1" stroke-dasharray="3,1" stroke="#d7d7d7" fill="none" stroke-dashoffset="0.5" />
  </g>
</svg>