<?xml version="1.0" encoding="utf-8"?>
<svg version="1.1" xmlns:xlink="http://www.w3.org/1999/xlink" width="15px" height="17px" xmlns="http://www.w3.org/2000/svg">
  <g transform="matrix(1 0 0 1 -68 -293 )">
    <path d="M 14 1.20131491731517  C 14.1771534406614 0.736238044767352  13.8003802682256 0.359120981261285  13.3353036663424 0.358612153696498  L 4.93102267217899 0.358612153696498  L 1 4.57320183463035  L 1 15.7988387859922  C 0.702224316537524 16.2641306407429  1.07939669388437 16.6413030045904  1.54468854863813 16.6413878463035  L 5.23671952237354 16.6413878463035  L 5.23671952237354 15.7988387859922  L 1.54484222178988 15.7988387859922  L 1.54484222178988 5.41221596011673  L 4.91304050097277 5.41221596011673  C 5.37806757404144 5.41221617017819  5.75516545833433 5.03546223568216  5.75558959143969 4.57043535603113  L 5.75558959143969 1.20146859046693  L 13.3353036663424 1.20146859046693  L 13.3353036663424 15.7989924892996  L 10.052559118677 15.7989924892996  L 10.052559118677 16.6415415496109  L 13.3353036663424 16.6415415496109  C 13.8003554152754 16.6411174788867  14.1771533447443 16.2640444238827  14 15.7989924892996  L 14 1.20131491731517  Z M 4.91304050097276 1.55035338618677  L 4.91304050097276 4.57012794941634  L 1.8931122344358 4.57012794941634  L 4.91304050097276 1.55035338618677  Z " fill-rule="nonzero" fill="#aaaaaa" stroke="none" transform="matrix(1 0 0 1 68 293 )" />
  </g>
</svg>