<?xml version="1.0" encoding="utf-8"?>
<svg version="1.1" xmlns:xlink="http://www.w3.org/1999/xlink" width="17px" height="17px" xmlns="http://www.w3.org/2000/svg">
  <g transform="matrix(1 0 0 1 -788 -91 )">
    <path d="M 9.0428 9.4168  C 9.0472 9.7776  9.3288 10.0592  9.6852 10.0592  L 12.0612 10.0592  C 12.422 10.0592  12.7036 9.7776  12.7036 9.4168  C 12.7036 9.056  12.422 8.7744  12.0612 8.7744  L 9.6852 8.7744  C 9.3244 8.7744  9.0428 9.056  9.0428 9.4168  Z M 9.0428 11.9776  C 9.0472 12.3384  9.3288 12.62  9.6852 12.62  L 12.0612 12.62  C 12.422 12.62  12.7036 12.3384  12.7036 11.9776  C 12.7036 11.6168  12.422 11.3352  12.0612 11.3352  L 9.6852 11.3352  C 9.3244 11.3352  9.0428 11.6168  9.0428 11.9776  Z M 16.2192 3.8728  C 16.228 2.4648  15.0752 1.312  13.6672 1.312  L 11.982 1.312  L 11.982 0.6696  C 11.982 0.3088  11.7004 0.0272000000000001  11.3396 0.0272000000000001  C 10.9788 0.0272000000000001  10.6972 0.3088  10.6972 0.6696  L 10.6972 1.312  L 5.5756 1.312  L 5.5756 0.6696  C 5.5756 0.3088  5.294 0.0272000000000001  4.9332 0.0272000000000001  C 4.5724 0.0272000000000001  4.2908 0.3088  4.2908 0.6696  L 4.2908 1.312  L 2.8212 1.312  C 1.4132 1.312  0.260399999999999 2.4648  0.260399999999999 3.8728  L 0.260399999999999 13.8344  C 0.260399999999999 15.2424  1.4132 16.3952  2.8212 16.3952  L 13.6584 16.3952  C 15.0664 16.3952  16.2192 15.2424  16.2192 13.8344  L 16.2192 3.8728  Z M 14.9476 6.4336  L 14.9476 13.8344  C 14.9476 14.5384  14.3712 15.1148  13.6672 15  L 2.8256 15  C 2.1216 15.1148  1.5452 14.5384  1.5452 13.8344  L 1.5452 6.4336  L 14.9476 6.4336  Z M 14.9564 5.1532  L 14.9476 5.1532  L 1.5452 5.1532  L 1.5452 3.8728  C 1.5452 3.1688  2.1216 2.5924  2.8256 2.5924  L 4.2952 2.5924  L 4.2952 3.2348  C 4.2952 3.5956  4.5768 3.8772  4.9376 3.8772  C 5.2984 3.8772  5.58 3.5956  5.58 3.2348  L 5.58 2.5924  L 10.706 2.5924  L 10.706 3.2348  C 10.706 3.5956  10.9876 3.8772  11.3484 3.8772  C 11.7092 3.8772  11.9908 3.5956  11.9908 3.2348  L 11.9908 2.5924  L 13.676 2.5924  C 14.38 2.5924  14.9564 3.1688  14.9564 3.8728  L 14.9564 5.1532  Z M 3.4504 11.9776  C 3.4504 12.3384  3.732 12.62  4.0928 12.62  L 6.4688 12.62  C 6.8296 12.62  7.1112 12.3384  7.1112 11.9776  C 7.1112 11.6168  6.8296 11.3352  6.4688 11.3352  L 4.0928 11.3352  C 3.732 11.3352  3.4504 11.6168  3.4504 11.9776  Z M 3.4504 9.4168  C 3.4504 9.7776  3.732 10.0592  4.0928 10.0592  L 6.4688 10.0592  C 6.8296 10.0592  7.1112 9.7776  7.1112 9.4168  C 7.1112 9.056  6.8296 8.7744  6.4688 8.7744  L 4.0928 8.7744  C 3.732 8.7744  3.4504 9.056  3.4504 9.4168  Z " fill-rule="nonzero" fill="#d7d7d7" stroke="none" transform="matrix(1 0 0 1 788 91 )" />
  </g>
</svg>