<?xml version="1.0" encoding="utf-8"?>
<svg version="1.1" xmlns:xlink="http://www.w3.org/1999/xlink" width="31px" height="31px" xmlns="http://www.w3.org/2000/svg">
  <g transform="matrix(1 0 0 1 -60 -286 )">
    <path d="M 30.8793774319066 15.5003842431907  C 30.8793774319066 6.97299455933852  23.9673089396887 0.0603112840466924  15.440072959144 0.0603112840466924  C 6.91283694844358 0.0603112840466924  0 6.97299455933852  0 15.5003842431907  C 0 24.0276202237354  6.91283694844358 30.9396887159533  15.440072959144 30.9396887159533  C 23.9673089396887 30.9396887159533  30.8793774319066 24.0276202237354  30.8793774319066 15.5003842431907  Z M 30.3180879036965 15.5003842431907  C 30.3180879036965 23.7037875291829  23.6434762451362 30.3783991877432  15.440072959144 30.3783991877432  C 7.23590121692607 30.3783991877432  0.561289528210117 23.7037875291829  0.561289528210117 15.5003842431907  C 0.561289528210117 7.29621250097277  7.23590118677043 0.621600812256813  15.440072959144 0.621600812256813  C 23.6434762451362 0.621600812256813  30.3180879036965 7.29621247081712  30.3180879036965 15.5003842431907  Z " fill-rule="nonzero" fill="#aaaaaa" stroke="none" transform="matrix(1 0 0 1 60 286 )" />
  </g>
</svg>