<?xml version="1.0" encoding="utf-8"?>
<svg version="1.1" xmlns:xlink="http://www.w3.org/1999/xlink" width="20px" height="20px" xmlns="http://www.w3.org/2000/svg">
  <g transform="matrix(1 0 0 1 -56 -89 )">
    <path d="M 19.5380237601902 17.3369959578804  C 19.5380631963315 18.5505074728261  18.5505074728261 19.5380631963315  17.3369565217391 19.5380631963315  L 2.66304347826087 19.5380631963315  C 1.44949252717391 19.5380631963315  0.461936803668478 18.5505074728261  0.461936803668478 17.3369959578804  L 0.461936803668478 2.66308291440217  C 0.461936803668478 1.44953196331522  1.44949252717391 0.461976239809782  2.66304347826087 0.461976239809782  L 17.3369565217391 0.461976239809782  C 18.5504680366848 0.461976239809782  19.5380237601902 1.44953196331522  19.5380237601902 2.66308291440217  L 19.5380237601902 17.3369959578804  Z M 17.3369565217391 2  L 2.66304347826087 2  C 2.25877627972147 1.92936754415761  1.9293281080163 2.25881571586277  2 2.66308291440217  L 2 17.3369959578804  C 1.9293281080163 17.7420125118886  2.25877627972147 18.0706718919837  2.66304347826087 18  L 17.3369565217391 18  C 17.7419730757473 18.0706718919837  18.0706324558424 17.7419730757473  18 17.3369959578804  L 18 2.66308291440217  C 18.0706324558424 2.25881571586277  17.741933639606 1.92936754415761  17.3369565217391 2  Z " fill-rule="nonzero" fill="#797979" stroke="none" transform="matrix(1 0 0 1 56 89 )" />
  </g>
</svg>