<?xml version="1.0" encoding="utf-8"?>
<svg version="1.1" xmlns:xlink="http://www.w3.org/1999/xlink" width="11px" height="8px" xmlns="http://www.w3.org/2000/svg">
  <g transform="matrix(1 0 0 1 -60 -96 )">
    <path d="M 10.3013076222957 1.38682672829861  C 10.5789784821214 1.09287430642361  10.5761384419321 0.618099415798612  10.2962799736328 0.326364439236111  C 10.0164215053335 0.0346294626736115  9.56378150217848 0.0376129157986106  9.28676305175781 0.332371704861111  L 4.08209388852163 5.85912885329861  L 1.77821232451923 3.37212442361111  C 1.50261390534856 3.07438218142361  1.05070310501803 3.06914094704861  0.768695402644232 3.35712643923611  C 0.485958519756611 3.64587796267361  0.479549258864183 4.12137854861111  0.754418475210338 4.41762906423611  L 3.56593691473858 7.45286626736111  C 3.56735692367789 7.45512402517361  3.57023533826623 7.45512402517361  3.57165536951623 7.45738178298611  C 3.57307537845553 7.45887350954861  3.57380458128005 7.46189729861111  3.57522459021935 7.46338904861111  C 3.62020458428486 7.50987472829861  3.67589228508113 7.53837897048611  3.7287399456881 7.56990697829861  C 3.75656459773137 7.58567099392361  3.77870919170673 7.61191745486111  3.80726304657452 7.62389165017361  C 3.8936538140024 7.66138661111111  3.98576301389724 7.68013407986111  4.07714303327825 7.68013407986111  C 4.16783222423377 7.68013407986111  4.25848304079027 7.66138661111111  4.34414460539363 7.62538337673611  C 4.3719692574369 7.61336886892361  4.39342302298678 7.58938014236111  4.41982766609074 7.57438215798611  C 4.4733661328125 7.54289446267361  4.52905383360877 7.51511593923611  4.5747630304988 7.46786422829861  C 4.5761830394381 7.46637250173611  4.57691224226262 7.46334871267361  4.57906145402644 7.46185696267361  C 4.58048146296574 7.45959920486111  4.58263067472957 7.45887348611111  4.58477990880408 7.45734144704861  L 10.3013076222957 1.38682672829861  Z " fill-rule="nonzero" fill="#797979" stroke="none" transform="matrix(1 0 0 1 60 96 )" />
  </g>
</svg>