<?xml version="1.0" encoding="utf-8"?>
<svg version="1.1" xmlns:xlink="http://www.w3.org/1999/xlink" width="20px" height="18px" xmlns="http://www.w3.org/2000/svg">
  <g transform="matrix(1 0 0 1 -986 -19 )">
    <path d="M 9.985 7.7139  L 2.207 0.7137  C 2.02056090142383 0.551637984111561  1.77148764357673 0.461059385154703  1.51228820572745 0.461059385154703  C 0.960003455896654 0.461059385154703  0.512288205727447 0.864003110306988  0.512288205727447 1.3610593851547  C 0.512288205727447 1.59433887921905  0.61293109345729 1.81850481128145  0.793 1.9863  L 8.57 8.9865  L 0.793 15.9867  C 0.605272670785417 16.1555351937516  0.499797395524286 16.3845965339215  0.499797395524286 16.62345  C 0.499797395524286 17.1206069806737  0.947603354807022 17.5236323440281  1.5 17.5236323440281  C 1.76514771199474 17.5236323440281  2.01944599304497 17.4288793139583  2.207 17.2602  L 9.985 10.2591  L 17.763 17.2602  C 17.9506406665615 17.4290765999053  18.205136024496 17.5239504858411  18.4705 17.5239504858411  C 19.0230918728281 17.5239504858411  19.471056095379 17.1207826855452  19.471056095379 16.62345  C 19.471056095379 16.3846224220464  19.3656406665615 16.1555765999053  19.178 15.9867  L 11.399 8.9865  L 19.178 1.9863  C 19.3654214599536 1.81750139374047  19.4707026044757 1.58863294079526  19.4707026044757 1.35  C 19.4707026044757 0.85284301932632  19.022896645193 0.449817655971857  18.4705 0.449817655971857  C 18.2051072599128 0.449817655971857  17.950594659724 0.544745403706877  17.763 0.7137  L 9.985 7.713  Z " fill-rule="nonzero" fill="#aaaaaa" stroke="none" transform="matrix(1 0 0 1 986 19 )" />
  </g>
</svg>