<?xml version="1.0" encoding="utf-8"?>
<svg version="1.1" xmlns:xlink="http://www.w3.org/1999/xlink" width="37px" height="45px" xmlns="http://www.w3.org/2000/svg">
  <g transform="matrix(1 0 0 1 -75 -130 )">
    <path d="M 36.875 42.40625  C 36.8734177451637 43.8150707845931  35.7317374672103 44.9567510625465  34.3229166826172 45  L 2.67708331738281 45  C 1.26826253278974 44.9567510625465  0.126582254836333 43.8150707845931  0.125 42.40625  L 0.125 2.59375  C 0.126582254836336 1.18492921540692  1.26826253278974 0.0432489374535234  2.67708331738281 0  L 25.011640625 0  C 25.6888685585501 0.0398056564289937  26.3386961513365 0.308949383378887  26.8162825361328 0.789108088867187  L 36.12755859375 10.1003840986328  C 36.6077173110494 10.5779704951073  36.8768610389802 11.2277981074926  36.875 11.9050260576172  L 36.875 42.40625  Z M 24.625 2  L 2.67708331738281 2  C 2.39518798620131 2.0833333438105  2.16666668261719 2.3118546688185  2.16666668261719 2.59375  L 2.16666668261719 42.40625  C 2.16666668261719 42.6881453311815  2.39518798620132 42.9166666561895  2.67708331738281 43  L 34.3229166826172 43  C 34.6048120137987 42.9166666561895  34.8333333173828 42.6881453311815  34.8333333173828 42.40625  L 34.8333333173828 12.2916666826172  L 27.1770833173828 12.2916666826172  C 25.7682625141322 12.2900844277303  24.6265822284715 11.1484041206631  24.625 9.73958331738281  L 24.625 2  Z M 33.3898112138672 10.25  L 26.6666666826172 3.52685546875  L 26.6666666826172 9.73958331738281  C 26.6666666826172 10.0214786485643  26.8951879862013 10.2499999735723  27.1770833173828 10.25  L 33.3898112138672 10.25  Z M 27.6875 34.75  C 27.6875 34.75  27.6875 34.75  27.6875 34  L 9.3125 34  C 9.3125 34.75  9.3125 34.75  9.3125 34.75  C 8.74870931347646 34.75  8.29166665869141 34.292957345215  8.29166665869141 33.7291666586914  C 8.29166665869141 33.1653759721679  8.74870931347645 32.7083333173828  9.3125 32.7083333173828  L 9.3125 32  L 27.6875 32  L 27.6875 32.7083333173828  C 28.2512906865235 32.7083333173828  28.7083333413086 33.1653759721679  28.7083333413086 33.7291666586914  C 28.7083333413086 34.292957345215  28.2512906865236 34.75  27.6875 34.75  Z M 27.6875 24.5416666826172  C 27.6875 24.5416666826172  27.6875 24.5416666826172  27.6875 24  L 9.3125 24  C 9.3125 24.5416666826172  9.3125 24.5416666826172  9.3125 24.5416666826172  C 8.74870931347645 24.5416666826172  8.29166665869141 24.0846240278321  8.29166665869141 23.5208333413086  C 8.29166665869141 22.957042654785  8.74870931347645 22.5  9.3125 22.5  C 9.3125 22.5  9.3125 22.5  9.3125 22  L 27.6875 22  C 27.6875 22.5  27.6875 22.5  27.6875 22.5  C 28.2512906865236 22.5  28.7083333413086 22.957042654785  28.7083333413086 23.5208333413086  C 28.7083333413086 24.0846240278321  28.2512906865236 24.5416666826172  27.6875 24.5416666826172  Z M 17.4791666826172 12.2916666826172  L 9.3125 12.2916666826172  C 8.74870931347645 12.2916666826172  8.29166665869141 11.8346240278321  8.29166665869141 11.2708333413086  C 8.29166665869141 10.707042654785  8.74870931347645 10.25  9.3125 10.25  L 17.4791666826172 10.25  C 18.0429573691407 10.25  18.5000000239258 10.707042654785  18.5000000239258 11.2708333413086  C 18.5000000239258 11.8346240278321  18.0429573691407 12.2916666826172  17.4791666826172 12.2916666826172  Z " fill-rule="nonzero" fill="#5c5c66" stroke="none" transform="matrix(1 0 0 1 75 130 )" />
  </g>
</svg>