<?xml version="1.0" encoding="utf-8"?>
<svg version="1.1" xmlns:xlink="http://www.w3.org/1999/xlink" width="8px" height="8px" xmlns="http://www.w3.org/2000/svg">
  <g transform="matrix(1 0 0 1 -121 -184 )">
    <path d="M 125 184  C 127.24 184  129 185.76  129 188  C 129 190.24  127.24 192  125 192  C 122.76 192  121 190.24  121 188  C 121 185.76  122.76 184  125 184  Z " fill-rule="nonzero" fill="#ffffff" stroke="none" />
    <path d="M 125 184.5  C 126.96 184.5  128.5 186.04  128.5 188  C 128.5 189.96  126.96 191.5  125 191.5  C 123.04 191.5  121.5 189.96  121.5 188  C 121.5 186.04  123.04 184.5  125 184.5  Z " stroke-width="1" stroke="#ffffff" fill="none" />
  </g>
</svg>