<?xml version="1.0" encoding="utf-8"?>
<svg version="1.1" xmlns:xlink="http://www.w3.org/1999/xlink" width="8px" height="8px" xmlns="http://www.w3.org/2000/svg">
  <g transform="matrix(1 0 0 1 -121 -145 )">
    <path d="M 125 145  C 127.24 145  129 146.76  129 149  C 129 151.24  127.24 153  125 153  C 122.76 153  121 151.24  121 149  C 121 146.76  122.76 145  125 145  Z " fill-rule="nonzero" fill="#ffffff" stroke="none" />
    <path d="M 125 145.5  C 126.96 145.5  128.5 147.04  128.5 149  C 128.5 150.96  126.96 152.5  125 152.5  C 123.04 152.5  121.5 150.96  121.5 149  C 121.5 147.04  123.04 145.5  125 145.5  Z " stroke-width="1" stroke="#ffffff" fill="none" />
  </g>
</svg>