<?xml version="1.0" encoding="utf-8"?>
<svg version="1.1" xmlns:xlink="http://www.w3.org/1999/xlink" width="16px" height="16px" xmlns="http://www.w3.org/2000/svg">
  <g transform="matrix(1 0 0 1 -117 -180 )">
    <path d="M 125 180  C 129.48 180  133 183.52  133 188  C 133 192.48  129.48 196  125 196  C 120.52 196  117 192.48  117 188  C 117 183.52  120.52 180  125 180  Z " fill-rule="nonzero" fill="#ffffff" stroke="none" />
    <path d="M 125 180.5  C 129.2 180.5  132.5 183.8  132.5 188  C 132.5 192.2  129.2 195.5  125 195.5  C 120.8 195.5  117.5 192.2  117.5 188  C 117.5 183.8  120.8 180.5  125 180.5  Z " stroke-width="1" stroke="#409eff" fill="none" />
  </g>
</svg>