<?xml version="1.0" encoding="utf-8"?>
<svg version="1.1" xmlns:xlink="http://www.w3.org/1999/xlink" width="54px" height="72px" xmlns="http://www.w3.org/2000/svg">
  <g transform="matrix(1 0 0 1 -116 -46 )">
    <path d="M 29.2499999648437 58.4999999648437  C 36.4882499296875 58.4999999648437  43.11225 55.8697499296875  48.2197500351562 51.5137499648438  C 48.3210000351562 51.6644999296875  48.411 51.8242499648438  48.4942499648437 51.9862499648438  L 52.8749999648437 60.7500000351562  C 53.4146239648737 61.8293554460749  53.6955582101918 63.0195179419628  53.6955582101918 64.2262499604688  C 53.6955582101918 68.5193033956465  50.2155533830224 71.9996179239241  45.9224999648438 72  L 8.07750003515625 72  C 3.78444661697757 71.9996179239241  0.304441789808173 68.5193033956465  0.304441789808173 64.2262499604688  C 0.304441789808173 63.0195179419628  0.585376035126287 61.8293554460749  1.12500003515624 60.7500000351563  L 5.50575003515624 51.9885000351563  C 5.589 51.8242500703125  5.6790000703125 51.6645000351562  5.78024996484375 51.5160000351562  C 11.0673843484493 56.0332829738105  17.7958987159808 58.5104871381016  24.7500000351562 58.4999999648437  L 29.2499999648437 58.4999999648437  Z M 0 27.0000000351562  C 0 12.0892500351562  12.08925 0  27 0  C 41.91075 0  54 12.0892500351562  54 27.0000000351562  C 54 41.9107500351563  41.91075 54.0000000351563  27 54.0000000351563  C 12.08925 54.0000000351563  0 41.9107500351563  0 27.0000000351562  Z M 15.7510892414067 31.5000000175781  C 15.7510892414067 37.7127780878969  20.7872219588036 42.7493984503536  27 42.75  C 27.0003630921688 42.7500000351563  27.0007261843925 42.7500000527344  27.001089276563 42.7500000527344  C 33.2142927315757 42.7500000527344  38.2510893117192 37.7132034725908  38.2510893117192 31.5000000175781  C 38.2510893117192 25.2867965625654  33.2142927315757 20.2499999824219  27.001089276563 20.2499999824219  C 27.0007261843925 20.2499999824219  27.0003630921688 20.25  27 20.2500000351562  C 20.7872219588036 20.2506015848026  15.7510892414067 25.2872219472593  15.7510892414067 31.5000000175781  Z M 31.7378110809939 31.5000000175781  C 31.7378110809939 33.98501237589  29.7235122940343 35.9996195617265  27.2384999648437 36  C 24.7525296521828 36.0000000527344  22.7378110106814 33.985281411233  22.7378110106814 31.5000000175781  C 22.7378110106814 29.0147186239233  24.7525296521828 26.9999999824219  27.2378110458377 26.9999999824219  C 29.7235122940343 27.0003804734297  31.7378110809939 29.0149876592663  31.7378110809939 31.5000000175781  Z " fill-rule="nonzero" fill="#555555" stroke="none" transform="matrix(1 0 0 1 116 46 )" />
  </g>
</svg>