<?xml version="1.0" encoding="utf-8"?>
<svg version="1.1" xmlns:xlink="http://www.w3.org/1999/xlink" width="116px" height="80px" xmlns="http://www.w3.org/2000/svg">
  <defs>
    <filter x="735px" y="-3px" width="116px" height="80px" filterUnits="userSpaceOnUse" id="filter55">
      <feOffset dx="0" dy="3" in="SourceAlpha" result="shadowOffsetInner" />
      <feGaussianBlur stdDeviation="10" in="shadowOffsetInner" result="shadowGaussian" />
      <feComposite in2="shadowGaussian" operator="atop" in="SourceAlpha" result="shadowComposite" />
      <feColorMatrix type="matrix" values="0 0 0 0 0.2  0 0 0 0 0.43921568627451  0 0 0 0 1  0 0 0 0.0980392156862745 0  " in="shadowComposite" />
    </filter>
    <g id="widget56">
      <path d="M 755.5 19  A 4.5 4.5 0 0 1 760 14.5 L 826 14.5  A 4.5 4.5 0 0 1 830.5 19 L 830.5 49  A 4.5 4.5 0 0 1 826 53.5 L 760 53.5  A 4.5 4.5 0 0 1 755.5 49 L 755.5 19  Z " fill-rule="nonzero" fill="#ffffff" stroke="none" fill-opacity="0" />
      <path d="M 755.5 19  A 4.5 4.5 0 0 1 760 14.5 L 826 14.5  A 4.5 4.5 0 0 1 830.5 19 L 830.5 49  A 4.5 4.5 0 0 1 826 53.5 L 760 53.5  A 4.5 4.5 0 0 1 755.5 49 L 755.5 19  Z " stroke-width="1" stroke="#e4e4e4" fill="none" />
    </g>
  </defs>
  <g transform="matrix(1 0 0 1 -735 3 )">
    <use xlink:href="#widget56" filter="url(#filter55)" />
    <use xlink:href="#widget56" />
  </g>
</svg>