<?xml version="1.0" encoding="utf-8"?>
<svg version="1.1" xmlns:xlink="http://www.w3.org/1999/xlink" width="7px" height="9px" xmlns="http://www.w3.org/2000/svg">
  <g transform="matrix(1 0 0 1 -415 -139 )">
    <path d="M 6.576171875 5.8921875  C 6.712890625 5.7375  6.53515625 5.5828125  6.275390625 5.56875  L 0.724609375 5.56875  C 0.451171875 5.56875  0.287109375 5.7515625  0.423828125 5.8921875  C 0.62890625 6.1171875  3.076171875 8.746875  3.19921875 8.8734375  C 3.349609375 9.0421875  3.677734375 9.0140625  3.814453125 8.8734375  C 3.91015625 8.775  6.42578125 6.046875  6.576171875 5.8921875  Z M 0.423828125 3.1078125  C 0.287109375 3.2484375  0.451171875 3.43125  0.724609375 3.43125  L 6.275390625 3.43125  C 6.53515625 3.43125  6.712890625 3.2625  6.576171875 3.1078125  C 6.42578125 2.953125  3.91015625 0.225  3.80078125 0.1125  C 3.677734375 -0.0281250000000004  3.349609375 -0.0421875000000004  3.185546875 0.1125  C 3.076171875 0.253125  0.62890625 2.8828125  0.423828125 3.1078125  Z " fill-rule="nonzero" fill="#d3dce6" stroke="none" transform="matrix(1 0 0 1 415 139 )" />
  </g>
</svg>