<?xml version="1.0" encoding="utf-8"?>
<svg version="1.1" xmlns:xlink="http://www.w3.org/1999/xlink" width="18px" height="18px" xmlns="http://www.w3.org/2000/svg">
  <g transform="matrix(1 0 0 1 -2162 -604 )">
    <path d="M 2171 604  C 2176.04 604  2180 607.96  2180 613  C 2180 618.04  2176.04 622  2171 622  C 2165.96 622  2162 618.04  2162 613  C 2162 607.96  2165.96 604  2171 604  Z " fill-rule="nonzero" fill="#ffffff" stroke="none" />
    <path d="M 2171 604.5  C 2175.76 604.5  2179.5 608.24  2179.5 613  C 2179.5 617.76  2175.76 621.5  2171 621.5  C 2166.24 621.5  2162.5 617.76  2162.5 613  C 2162.5 608.24  2166.24 604.5  2171 604.5  Z " stroke-width="1" stroke="#d3dce6" fill="none" />
  </g>
</svg>