<?xml version="1.0" encoding="utf-8"?>
<svg version="1.1" xmlns:xlink="http://www.w3.org/1999/xlink" width="14px" height="14px" xmlns="http://www.w3.org/2000/svg">
  <g transform="matrix(1 0 0 1 -110 -53 )">
    <path d="M 13.79196875 7  C 13.79196875 10.7267890625  10.6810839843751 13.83766015625  6.95430859375006 13.83766015625  C 3.22753320312495 13.83766015625  0.116648437499975 10.726775390625  0.116648437499975 7  C 0.116648437499975 3.27322460937501  3.22753320312495 0.162326171875009  6.95430859375006 0.162326171875009  C 10.68109765625 0.162326171875009  13.79196875 3.27321093749998  13.79196875 7  Z M 12.826037109375 7  C 12.826037109375 3.79909960937499  10.1551953125 1.12825781250001  6.95430859375006 1.12825781250001  C 3.75342187499996 1.12825781250001  1.08258007812503 3.79909960937499  1.08258007812503 7  C 1.08258007812503 10.20088671875  3.75344921875001 12.871728515625  6.95430859375006 12.871728515625  C 10.1551953125 12.871728515625  12.826037109375 10.20088671875  12.826037109375 7  Z " fill-rule="nonzero" fill="#c0c4cc" stroke="none" transform="matrix(1 0 0 1 110 53 )" />
  </g>
</svg>