<?xml version="1.0" encoding="utf-8"?>
<svg version="1.1" xmlns:xlink="http://www.w3.org/1999/xlink" width="11px" height="16px" xmlns="http://www.w3.org/2000/svg">
  <g transform="matrix(1 0 0 1 -832 -217 )">
    <path d="M 0.760833341210937 8.94285714285715  C 0.66 9.04761905580357  0.559166682421873 9.25714285714286  0.66 9.36190477008929  L 5.39916665878906 15.2285714285714  C 5.5 15.3333333415179  5.70166665878906 15.3333333415179  5.70166665878906 15.2285714285714  L 10.4408333412109 9.36190477008929  C 10.5416666824219 9.25714285714286  10.4408333412109 8.94285714285715  10.2391666587891 8.94285714285715  L 0.760833341210937 8.94285714285715  Z M 0.559166658789062 6.53333334151786  C 0.559166658789062 6.74285714285714  0.659999999999999 6.95238096875  0.760833341210937 6.95238094419643  L 10.1383333412109 6.95238094419643  C 10.34 6.95238094419643  10.4408333412109 6.74285714285714  10.34 6.53333334151786  L 5.60083334121094 0.666666658482143  C 5.5 0.561904745535714  5.29833334121094 0.561904745535714  5.29833334121094 0.666666658482143  L 0.559166658789062 6.53333334151786  Z " fill-rule="nonzero" fill="#aaaaaa" stroke="none" transform="matrix(1 0 0 1 832 217 )" />
  </g>
</svg>