<?xml version="1.0" encoding="utf-8"?>
<svg version="1.1" xmlns:xlink="http://www.w3.org/1999/xlink" width="16px" height="16px" xmlns="http://www.w3.org/2000/svg">
  <g transform="matrix(1 0 0 1 -396 -20 )">
    <path d="M 7.988 6.8568  L 1.7656 0.6344  C 1.61644872113906 0.490344874765832  1.41719011486138 0.409830564581958  1.20983056458196 0.409830564581958  C 0.768002764717323 0.409830564581958  0.409830564581958 0.768002764717323  0.409830564581958 1.20983056458196  C 0.409830564581958 1.41719011486138  0.490344874765832 1.61644872113906  0.6344 1.7656  L 6.856 7.988  L 0.6344 14.2104  C 0.484218136628334 14.3604757277792  0.399837916419429 14.5640858079302  0.399837916419429 14.7764  C 0.399837916419429 15.2183173161544  0.758082683845618 15.5765620835806  1.2 15.5765620835806  C 1.41211816959579 15.5765620835806  1.61555679443598 15.4923371679629  1.7656 15.3424  L 7.988 9.1192  L 14.2104 15.3424  C 14.3605125332492 15.4925125332492  14.5641088195968 15.5768448763032  14.7764 15.5768448763032  C 15.2184734982624 15.5768448763032  15.5768448763032 15.2184734982624  15.5768448763032 14.7764  C 15.5768448763032 14.5641088195968  15.4925125332492 14.3605125332492  15.3424 14.2104  L 9.1192 7.988  L 15.3424 1.7656  C 15.4923371679629 1.61555679443598  15.5765620835806 1.41211816959579  15.5765620835806 1.2  C 15.5765620835806 0.758082683845618  15.2183173161544 0.399837916419429  14.7764 0.399837916419429  C 14.5640858079302 0.399837916419429  14.3604757277792 0.484218136628335  14.2104 0.6344  L 7.988 6.856  Z " fill-rule="nonzero" fill="#aaaaaa" stroke="none" transform="matrix(1 0 0 1 396 20 )" />
  </g>
</svg>