<?xml version="1.0" encoding="utf-8"?>
<svg version="1.1" xmlns:xlink="http://www.w3.org/1999/xlink" width="36px" height="36px" xmlns="http://www.w3.org/2000/svg">
  <g transform="matrix(1 0 0 1 -1669 -14 )">
    <path d="M 1687 14  C 1697.08 14  1705 21.92  1705 32  C 1705 42.08  1697.08 50  1687 50  C 1676.92 50  1669 42.08  1669 32  C 1669 21.92  1676.92 14  1687 14  Z " fill-rule="nonzero" fill="#f5f6fa" stroke="none" />
    <path d="M 1687 14.5  C 1696.8 14.5  1704.5 22.2  1704.5 32  C 1704.5 41.8  1696.8 49.5  1687 49.5  C 1677.2 49.5  1669.5 41.8  1669.5 32  C 1669.5 22.2  1677.2 14.5  1687 14.5  Z " stroke-width="1" stroke="#f5f6fa" fill="none" />
  </g>
</svg>