<?xml version="1.0" encoding="utf-8"?>
<svg version="1.1" xmlns:xlink="http://www.w3.org/1999/xlink" width="9px" height="13px" xmlns="http://www.w3.org/2000/svg">
  <g transform="matrix(1 0 0 1 -1602 -967 )">
    <path d="M 1.12314582714844 0.448895827148438  L 1.16945832714844 0.398625  C 1.45986868171807 0.108182992535925  1.92416642675633 0.0880708727503001  2.23860417285156 0.3523125  L 2.288875 0.398625  L 7.83054167285156 5.94029167285156  C 8.12098366909387 6.23070202499147  8.14109578865975 6.69499975689922  7.87685417285156 7.0094375  L 7.83054167285156 7.05970832714844  L 2.288875 12.601375  C 2.14046589954578 12.7494141589547  1.93940187278415 12.8325506639169  1.72978113506564 12.8325506639169  C 1.29255570470043 12.8325506639169  0.938114462214073 12.4781094214305  0.938114462214073 12.0408839910653  C 0.938114462214073 11.8548591766211  1.00362277354613 11.6747755556419  1.12314582714844 11.5322291728516  L 1.16945832714844 11.4819583271484  L 6.150625 6.5  L 1.16945832714844 1.51804167285156  C 0.879016319684363 1.22763131828193  0.858904199898738 0.763333573243673  1.12314582714844 0.448895827148438  Z " fill-rule="nonzero" fill="#7f7f7f" stroke="none" transform="matrix(1 0 0 1 1602 967 )" />
  </g>
</svg>