<?xml version="1.0" encoding="utf-8"?>
<svg version="1.1" xmlns:xlink="http://www.w3.org/1999/xlink" width="1598px" height="43px" xmlns="http://www.w3.org/2000/svg">
  <defs>
    <mask fill="white" id="clip57">
      <path d="M 0 38  L 0 5  C 0 2.19999999999999  2.39319264805989 0  5.43907420013615 0  L 1592.56092579986 0  C 1595.60680735194 0  1598 2.19999999999999  1598 5  L 1598 38  C 1598 39.4682186141292  1598 43  1598 43  C 1598 43  1594.00965735509 43  1592.56092579986 43  L 5.43907420013615 43  C 3.82867437670027 43  0 43  0 43  C 0 43  0 39.3196011635624  0 38  Z " fill-rule="evenodd" />
    </mask>
  </defs>
  <g transform="matrix(1 0 0 1 -22 -564 )">
    <path d="M 0 38  L 0 5  C 0 2.19999999999999  2.39319264805989 0  5.43907420013615 0  L 1592.56092579986 0  C 1595.60680735194 0  1598 2.19999999999999  1598 5  L 1598 38  C 1598 39.4682186141292  1598 43  1598 43  C 1598 43  1594.00965735509 43  1592.56092579986 43  L 5.43907420013615 43  C 3.82867437670027 43  0 43  0 43  C 0 43  0 39.3196011635624  0 38  Z " fill-rule="nonzero" fill="#f0f5ff" stroke="none" transform="matrix(1 0 0 1 22 564 )" />
    <path d="M 0 38  L 0 5  C 0 2.19999999999999  2.39319264805989 0  5.43907420013615 0  L 1592.56092579986 0  C 1595.60680735194 0  1598 2.19999999999999  1598 5  L 1598 38  C 1598 39.4682186141292  1598 43  1598 43  C 1598 43  1594.00965735509 43  1592.56092579986 43  L 5.43907420013615 43  C 3.82867437670027 43  0 43  0 43  C 0 43  0 39.3196011635624  0 38  Z " stroke-width="2" stroke="#e0e6ed" fill="none" transform="matrix(1 0 0 1 22 564 )" mask="url(#clip57)" />
  </g>
</svg>