<?xml version="1.0" encoding="utf-8"?>
<svg version="1.1" xmlns:xlink="http://www.w3.org/1999/xlink" width="43px" height="18px" xmlns="http://www.w3.org/2000/svg">
  <g transform="matrix(1 0 0 1 -573 -407 )">
    <path d="M 4.25320870535714 16.851708984375  C 3.91487165178571 17.264794921875  3.4003173828125 17.4919921875  2.87871442522321 17.4919921875  C 2.49103655133929 17.4919921875  2.11040736607143 17.36806640625  1.78616768973214 17.12021484375  C 1.02490931919643 16.528125  0.890984235491072 15.447216796875  1.49717145647321 14.703662109375  C 3.34392787388393 12.4248046875  5.81096888950893 10.64853515625  8.44012974330357 9.719091796875  C 11.2737025669643 8.713916015625  14.1354701450893 9.4505859375  16.6589006696429 10.104638671875  C 18.9285784040179 10.68984375  20.8951625279018 11.185546875  22.2626081194196 10.393798828125  C 23.383349609375 9.73974609375001  24.2503383091518 8.521142578125  24.9763532366071 7.42646484375  C 27.429296875 3.72246093750001  30.9395438058036 1.35410156250001  34.3511090959821 1.085595703125  C 36.2683523995536 0.941015625000002  39.0173409598214 1.3541015625  41.639453125 4.190625  C 42.2949811662946 4.899755859375  42.2385916573661 5.9806640625  41.5196254185268 6.620947265625  C 40.8006591796875 7.26123046875  39.6869663783482 7.20615234375  39.0314383370536 6.50390625  C 37.6921875 5.064990234375  36.2401576450893 4.39716796875  34.6401053292411 4.514208984375  C 32.3422328404018 4.693212890625  29.7765101841518 6.5314453125  27.9368024553571 9.29912109375  C 26.9993268694196 10.7173828125  25.8433419363839 12.321533203125  24.0670724051339 13.354248046875  C 21.4308628627232 14.896435546875  18.4140241350446 14.11845703125  15.7637172154018 13.436865234375  C 13.5363316127232 12.8654296875  11.44287109375 12.32841796875  9.63840680803571 12.96181640625  C 7.61543317522321 13.684716796875  5.70523856026786 15.061669921875  4.25320870535714 16.851708984375  Z " fill-rule="nonzero" fill="#828282" stroke="none" transform="matrix(1 0 0 1 573 407 )" />
  </g>
</svg>