<?xml version="1.0" encoding="utf-8"?>
<svg version="1.1" xmlns:xlink="http://www.w3.org/1999/xlink" width="57px" height="52px" xmlns="http://www.w3.org/2000/svg">
  <g transform="matrix(1 0 0 1 -567 -382 )">
    <path d="M 55 41.6948414522059  C 55.6821157094595 46.5384765625  51.7153742609797 50.4765625  46.8364944045608 50  L 9.27619035050676 50  C 4.39731049408784 50.4765625  0.430569045608108 46.5384765625  1 41.6948414522059  L 1 10.1971737132353  C 0.430569045608108 5.35353860294118  4.39731049408784 1.41545266544118  9.27619035050676 2  L 46.8364944045608 2  C 51.7153742609797 1.41545266544118  55.6821157094595 5.35353860294118  55 10.1971737132353  L 55 41.6948414522059  Z M 46.8364944045608 5  L 9.27619035050676 5  C 6.3488624366554 4.93235294117647  3.97306007179054 7.29801240808823  4 10.1971737132353  L 4 41.6948414522059  C 3.97306007179054 44.6010225183824  6.35593327702703 46.9596622242647  9.27619035050676 47  L 46.8364944045608 47  C 49.7638223184122 46.9596622242647  52.139624683277 44.5940027573529  52 41.6948414522059  L 52 10.1971737132353  C 52.139624683277 7.29099264705882  49.7567514780405 4.93235294117647  46.8364944045608 5  Z " fill-rule="nonzero" fill="#828282" stroke="none" transform="matrix(1 0 0 1 567 382 )" />
  </g>
</svg>