<?xml version="1.0" encoding="utf-8"?>
<svg version="1.1" xmlns:xlink="http://www.w3.org/1999/xlink" width="15px" height="15px" xmlns="http://www.w3.org/2000/svg">
  <g transform="matrix(1 0 0 1 -686 -70 )">
    <path d="M 14 12.94482421875  C 14.068359375 13.56005859375  13.5673828125 14.06103515625  12.95068359375 14  L 2.07861328125 14  C 1.46337890625 14.06103515625  0.96240234375 13.56005859375  1 12.94482421875  L 1 2.0712890625  C 0.96240234375 1.4560546875  1.46337890625 0.955078125  2.07861328125 1  L 12.9521484375 1  C 13.5673828125 0.955078125  14.068359375 1.4560546875  14 2.0712890625  L 14 12.94482421875  Z M 2.07861328125 1.634765625  L 2.07861328125 1.63330078125  C 1.83837890625 1.63330078125  1.64208984375 1.82958984375  1.64208984375 2.06982421875  L 1.64208984375 12.943359375  C 1.64208984375 13.18359375  1.83837890625 13.3798828125  2.07861328125 13.3798828125  L 12.9521484375 13.3798828125  C 13.1923828125 13.3798828125  13.388671875 13.18359375  13.388671875 12.943359375  L 13.388671875 2.0712890625  C 13.388671875 1.8310546875  13.1923828125 1.634765625  12.9521484375 1.634765625  L 2.07861328125 1.634765625  Z " fill-rule="nonzero" fill="#7d7d7d" stroke="none" transform="matrix(1 0 0 1 686 70 )" />
  </g>
</svg>