<?xml version="1.0" encoding="utf-8"?>
<svg version="1.1" xmlns:xlink="http://www.w3.org/1999/xlink" width="15px" height="15px" xmlns="http://www.w3.org/2000/svg">
  <g transform="matrix(1 0 0 1 -377 -102 )">
    <path d="M 14.4062357226563 12.8125285546875  C 14.4062642773437 13.69120078125  13.69120078125 14.4062642773437  12.8125 14.4062642773437  L 2.1875 14.4062642773437  C 1.30879921875 14.4062642773437  0.59373572265625 13.69120078125  0.59373572265625 12.8125285546875  L 0.59373572265625 2.1875285546875  C 0.59373572265625 1.3088277734375  1.30879921875 0.593764277343749  2.1875 0.593764277343749  L 12.8125 0.593764277343749  C 13.6911722265625 0.593764277343749  14.4062357226563 1.3088277734375  14.4062357226563 2.1875285546875  L 14.4062357226563 12.8125285546875  Z M 12.8125 1.65626427734375  L 2.1875 1.65626427734375  C 1.89478060253906 1.65626427734375  1.65623572265625 1.89480915722656  1.65623572265625 2.1875285546875  L 1.65623572265625 12.8125285546875  C 1.65623572265625 13.1057905410156  1.89478060253906 13.3437642773437  2.1875 13.3437642773437  L 12.8125 13.3437642773437  C 13.1057619863281 13.3437642773437  13.3437357226563 13.1057619863281  13.3437357226563 12.8125285546875  L 13.3437357226563 2.1875285546875  C 13.3437357226563 1.89480915722656  13.1057334316406 1.65626427734375  12.8125 1.65626427734375  Z " fill-rule="nonzero" fill="#000000" stroke="none" transform="matrix(1 0 0 1 377 102 )" />
  </g>
</svg>