<?xml version="1.0" encoding="utf-8"?>
<svg version="1.1" xmlns:xlink="http://www.w3.org/1999/xlink" width="15px" height="15px" xmlns="http://www.w3.org/2000/svg">
  <g transform="matrix(1 0 0 1 -679 -69 )">
    <path d="M 14.9415496357422 7.4998131328125  C 14.9415496357422 11.6033299433594  11.6033299433594 14.9415496357422  7.4998131328125 14.9415496357422  C 3.39665307324219 14.9415496357422  0.0584333808593749 11.6033129599609  0.0584333808593749 7.4998131328125  C 0.0584333808593749 3.39665307324219  3.39667005664062 0.0584333808593749  7.4998131328125 0.0584333808593749  C 11.6033129599609 0.0584333808593749  14.9415496357422 3.39667005664062  14.9415496357422 7.4998131328125  Z M 14.4013498828125 7.49983011621094  C 14.4013668662109 3.69454609863281  11.3054539013672 0.598633133789063  7.4998131328125 0.598633133789063  C 3.69454609863281 0.598633133789063  0.598616150390625 3.69454609863281  0.598616150390625 7.49983011621094  C 0.598616150390625 11.3054539013672  3.69452911523438 14.4013668662109  7.4998131328125 14.4013668662109  C 11.3054369179688 14.4013668662109  14.4013498828125 11.3054539013672  14.4013498828125 7.49983011621094  Z " fill-rule="nonzero" fill="#409eff" stroke="none" transform="matrix(1 0 0 1 679 69 )" />
  </g>
</svg>