<?xml version="1.0" encoding="utf-8"?>
<svg version="1.1" xmlns:xlink="http://www.w3.org/1999/xlink" width="11px" height="11px" xmlns="http://www.w3.org/2000/svg">
  <g transform="matrix(1 0 0 1 -180 -263 )">
    <path d="M 3.68582983398437 1.21567590332031  C 4.25746057128906 0.973904174804687  4.86511657714844 0.851314331054687  5.49193933105469 0.851314331054688  C 6.11876208496094 0.851314331054688  6.72641809082031 0.973904174804688  7.298048828125 1.21567590332031  C 7.85056115722656 1.44936279296875  8.3469267578125 1.78407995605469  8.77335668945313 2.21052197265625  C 9.19979870605469 2.63695190429688  9.53450378417969 3.13331750488281  9.76820275878906 3.68582983398437  C 10.0099744873047 4.25744848632812  10.1325643310547 4.86511657714844  10.1325643310547 5.49193933105469  C 10.1325643310547 6.11876208496094  10.0099744873047 6.72641809082031  9.76820275878906 7.298048828125  C 9.53451586914063 7.85056115722656  9.19979870605469 8.3469267578125  8.77335668945313 8.77335668945313  C 8.3469267578125 9.19979870605469  7.85056115722656 9.53450378417969  7.298048828125 9.76820275878906  C 6.72643017578125 10.0099744873047  6.11876208496094 10.1325643310547  5.49193933105469 10.1325643310547  C 4.86511657714844 10.1325643310547  4.25746057128906 10.0099744873047  3.68582983398437 9.76820275878906  C 3.13331750488281 9.53451586914063  2.63695190429687 9.19979870605469  2.21052197265625 8.77335668945313  C 1.78407995605469 8.3469267578125  1.44937487792969 7.85056115722656  1.21567590332031 7.298048828125  C 0.973904174804687 6.72643017578125  0.851314331054687 6.11876208496094  0.851314331054687 5.49193933105469  C 0.851314331054687 4.86511657714844  0.973904174804687 4.25746057128906  1.21567590332031 3.68582983398437  C 1.44936279296875 3.13331750488281  1.78407995605469 2.63695190429687  2.21052197265625 2.21052197265625  C 2.63695190429687 1.78407995605469  3.13331750488281 1.44937487792969  3.68582983398437 1.21567590332031  Z M 10.9060018310547 5.49193933105469  C 10.9060018310547 2.50182995605469  8.48204870605469 0.0778768310546871  5.49193933105469 0.0778768310546868  C 2.50182995605469 0.0778768310546868  0.0778768310546871 2.50182995605469  0.0778768310546871 5.49193933105469  C 0.0778768310546871 8.48204870605469  2.50182995605469 10.9060018310547  5.49193933105469 10.9060018310547  C 8.48204870605469 10.9060018310547  10.9060018310547 8.48204870605469  10.9060018310547 5.49193933105469  Z " fill-rule="nonzero" fill="#7f7f7f" stroke="none" transform="matrix(1 0 0 1 180 263 )" />
  </g>
</svg>