<?xml version="1.0" encoding="utf-8"?>
<svg version="1.1" xmlns:xlink="http://www.w3.org/1999/xlink" width="6px" height="6px" xmlns="http://www.w3.org/2000/svg">
  <g transform="matrix(1 0 0 1 -183 -266 )">
    <path d="M 5.53951611328125 4.94290576171875  L 3.5966103515625 3  L 5.53951611328125 1.05709423828125  C 5.704271484375 0.8923388671875  5.704271484375 0.625226074218751  5.53951611328125 0.460470703125  C 5.37477392578125 0.29571533203125  5.10764794921875 0.29571533203125  4.94290576171875 0.460470703125  L 3 2.4033896484375  L 1.05709423828125 0.46048388671875  C 0.8923388671875 0.295728515625  0.625226074218751 0.295728515625  0.460470703125 0.46048388671875  C 0.29571533203125 0.6252392578125  0.29571533203125 0.892352050781249  0.460470703125 1.057107421875  L 2.4033896484375 3  L 0.46048388671875 4.94290576171875  C 0.295728515625 5.10764794921875  0.295728515625 5.37477392578125  0.46048388671875 5.53951611328125  C 0.54285498046875 5.621900390625  0.65082861328125 5.6630859375  0.7587890625 5.6630859375  C 0.86674951171875 5.6630859375  0.97472314453125 5.621900390625  1.05709423828125 5.53951611328125  L 3 3.5966103515625  L 4.94290576171875 5.53951611328125  C 5.02527685546875 5.621900390625  5.13325048828125 5.6630859375  5.2412109375 5.6630859375  C 5.34917138671875 5.6630859375  5.45714501953125 5.621900390625  5.53951611328125 5.53951611328125  C 5.704271484375 5.37477392578125  5.704271484375 5.10764794921875  5.53951611328125 4.94290576171875  Z " fill-rule="nonzero" fill="#7f7f7f" stroke="none" transform="matrix(1 0 0 1 183 266 )" />
  </g>
</svg>