<?xml version="1.0" encoding="utf-8"?>
<svg version="1.1" xmlns:xlink="http://www.w3.org/1999/xlink" width="11px" height="11px" xmlns="http://www.w3.org/2000/svg">
  <g transform="matrix(1 0 0 1 -38 -56 )">
    <path d="M 2.066625 1.375  C 1.684375 1.375  1.375 1.684375  1.375 2.066625  L 1.375 8.933375  C 1.375 9.315625  1.684375 9.625  2.066625 9.625  L 8.933375 9.625  C 9.315625 9.625  9.625 9.315625  9.625 8.933375  L 9.625 2.066625  C 9.625 1.684375  9.315625 1.375  8.933375 1.375  L 2.066625 1.375  Z M 0.6875 8.933375  L 0.6875 2.066625  C 0.6875 1.304875  1.3041875 0.6875  2.066625 0.6875  L 8.933375 0.6875  C 9.695125 0.6875  10.3125 1.3041875  10.3125 2.066625  L 10.3125 8.933375  C 10.312500171532 9.69535268137684  9.69535268137684 10.312500171532  8.93406267153196 10.312500171532  L 2.066625 10.3125  C 1.30464731862316 10.312500171532  0.687499828468042 9.69535268137684  0.687499828468042 8.93406267153196  Z " fill-rule="nonzero" fill="#e0e3ea" stroke="none" transform="matrix(1 0 0 1 38 56 )" />
  </g>
</svg>