<?xml version="1.0" encoding="utf-8"?>
<svg version="1.1" xmlns:xlink="http://www.w3.org/1999/xlink" width="9px" height="7px" xmlns="http://www.w3.org/2000/svg">
  <g transform="matrix(1 0 0 1 -689 -74 )">
    <path d="M 4.10009765625 5.8935546875  C 3.9052734375 6.0810546875  3.64892578125 6.17626953125  3.392578125 6.17626953125  C 3.13623046875 6.17626953125  2.8798828125 6.08251953125  2.68505859375 5.8935546875  L 0.298828125 3.587890625  C 0.1640625 3.45751953125  0.15966796875 3.2421875  0.2900390625 3.107421875  C 0.42041015625 2.97265625  0.6357421875 2.96826171875  0.7705078125 3.0986328125  L 3.158203125 5.404296875  C 3.28857421875 5.52880859375  3.49951171875 5.52880859375  3.62841796875 5.404296875  L 8.2587890625 0.93212890625  C 8.3935546875 0.8017578125  8.60888671875 0.806152343749999  8.7392578125 0.94091796875  C 8.86962890625 1.07568359375  8.865234375 1.291015625  8.73046875 1.42138671875  L 4.10009765625 5.8935546875  Z " fill-rule="nonzero" fill="#7d7d7d" stroke="none" transform="matrix(1 0 0 1 689 74 )" />
  </g>
</svg>