<?xml version="1.0" encoding="utf-8"?>
<svg version="1.1" xmlns:xlink="http://www.w3.org/1999/xlink" width="9px" height="6px" xmlns="http://www.w3.org/2000/svg">
  <g transform="matrix(1 0 0 1 -484 -75 )">
    <path d="M 8.07269018359375 1.27863189550781  C 8.27930722070313 1.07041559667969  8.27719392480469 0.734116715820313  8.06894907128906 0.527471107421875  C 7.86070421777344 0.320825499023438  7.52389128613281 0.322938778320313  7.31775971191406 0.53172625390625  L 3.44492508203125 4.44651256738281  L 1.73058896875 2.6848844296875  C 1.52551405078125 2.47398367480469  1.18924372460938 2.47027113378906  0.979399609375 2.67426085742187  C 0.769012905273438 2.87879318652344  0.764243724609376 3.2156061015625  0.968776037109376 3.42545021679687  L 3.06084868066406 5.57540990234375  C 3.0619053203125 5.57700914746094  3.06404717089844 5.57700914746094  3.06510382714844 5.57860839257813  C 3.06616046679688 5.57966503222656  3.06670307226563 5.5818068828125  3.06775971191406 5.5828635390625  C 3.10122967382813 5.61579089550781  3.14266732324219 5.63598140039062  3.18199167675781 5.65831373925781  C 3.20269621582031 5.66947991699219  3.2191741796875 5.68807116015625  3.24042132421875 5.69655288183594  C 3.30470536328125 5.7231118125  3.37324453222656 5.73639126953125  3.44124111230469 5.73639126953125  C 3.50872364160156 5.73639126953125  3.57617761621094 5.7231118125  3.63991904980469 5.69760952148437  C 3.66062358886719 5.68909924511719  3.67658750195312 5.67210723046875  3.69623540136719 5.66148365820312  C 3.7360737890625 5.63917987402344  3.77751143847656 5.61950341992187  3.81152400585937 5.58603345800781  C 3.81258064550781 5.58497681835937  3.81312325097656 5.58283496777343  3.81472249609375 5.58177831152344  C 3.81577913574219 5.58017906640625  3.81737838085937 5.579665015625  3.81897764257812 5.57857982128906  L 8.07269018359375 1.27863189550781  Z " fill-rule="nonzero" fill="#000000" stroke="none" transform="matrix(1 0 0 1 484 75 )" />
  </g>
</svg>