<?xml version="1.0" encoding="utf-8"?>
<svg version="1.1" xmlns:xlink="http://www.w3.org/1999/xlink" width="14px" height="14px" xmlns="http://www.w3.org/2000/svg">
  <g transform="matrix(1 0 0 1 -377 -71 )">
    <path d="M 2.00600017800116 0.999999982178498  C 1.45000019781867 0.999999982178498  1.00000021385802 1.44999997415882  1.00000021385802 2.00599996425007  L 1.00000021385802 11.9939997862489  C 1.00000021385802 12.5499997763402  1.45000019781867 12.9999997683205  2.00600017800116 12.9999997683205  L 11.9939998219988 12.9999997683205  C 12.5499998021813 12.9999997683205  12.999999786142 12.5499997763402  12.999999786142 11.9939997862489  L 12.999999786142 2.00599996425007  C 12.999999786142 1.44999997415882  12.5499998021813 0.999999982178498  11.9939998219988 0.999999982178498  L 2.00600017800116 0.999999982178498  Z M 0 11.9939997862489  L 0 2.00599996425007  C 0 0.897999983996291  0.897000217529247 0  2.00600017800116 0  L 11.9939998219988 0  C 13.1019997825064 0  13.999999750499 0.896999984014113  13.999999750499 2.00599996425007  L 13.999999750499 11.9939997862489  C 13.999999916833 11.9943332027169  14 11.9946666192226  14 11.9950000357321  C 14 13.1023309394086  13.1023309554064 14  11.9950000714642 14  C 11.9946666549595 14  11.9943332384621 13.999999916833  11.9939998219988 13.999999750499  L 2.00600017800116 13.999999750499  C 2.00566676153909 13.999999916833  2.00533334503933 14  2.00499992853578 14  C 0.897669044593638 14  0 13.1023309394086  0 11.9950000357321  C 0 11.9946666192214  0 11.9943332027181  0 11.9939997862489  Z " fill-rule="nonzero" fill="#7f7f7f" stroke="none" transform="matrix(1 0 0 1 377 71 )" />
  </g>
</svg>