<?xml version="1.0" encoding="utf-8"?>
<svg version="1.1" xmlns:xlink="http://www.w3.org/1999/xlink" width="14px" height="14px" xmlns="http://www.w3.org/2000/svg">
  <g transform="matrix(1 0 0 1 -687 -102 )">
    <path d="M 13.633333328125 11.466666671875  C 13.66666665625 12.7  12.7 13.666666671875  11.5 13.666666671875  L 2.5 13.666666671875  C 1.3 13.666666671875  0.333333328125 12.7  0.333333328125 11.5  L 0.333333328125 2.5  C 0.333333328125 1.3  1.3 0.333333328125  2.5 0.333333328125  L 11.466666671875 0.333333328125  C 12.666666671875 0.333333328125  13.63333334375 1.3  13.633333328125 2.5  L 13.633333328125 11.466666671875  Z M 11.5 1.333333328125  L 2.5 1.333333328125  C 1.866666671875 1.333333328125  1.333333328125 1.866666671875  1.333333328125 2.5  L 1.333333328125 11.466666671875  C 1.333333328125 12.1  1.86666665625 12.63333334375  2.5 12.633333328125  L 11.466666671875 12.633333328125  C 12.1 12.633333328125  12.63333334375 12.1  12.633333328125 11.466666671875  L 12.633333328125 2.5  C 12.666666671875 1.866666671875  12.133333328125 1.333333328125  11.5 1.333333328125  Z " fill-rule="nonzero" fill="#7d7d7d" stroke="none" transform="matrix(1 0 0 1 687 102 )" />
  </g>
</svg>