<?xml version="1.0" encoding="utf-8"?>
<svg version="1.1" xmlns:xlink="http://www.w3.org/1999/xlink" width="11px" height="7px" xmlns="http://www.w3.org/2000/svg">
  <g transform="matrix(1 0 0 1 -397 -303 )">
    <path d="M 5.86791954492188 6.061829078125  C 5.77421107910156 6.15745724902344  5.6459480546875 6.21134470898437  5.51206181542969 6.21134470898437  C 5.37819257617188 6.21134470898437  5.24991255175781 6.15745724902344  5.1562040859375 6.061829078125  L 0.837867920898438 1.65567944628906  C 0.645235525390625 1.45915669042969  0.6484293671875 1.14368058496094  0.844969106445312 0.951065172851562  C 1.04149186230469 0.758466760742187  1.35698496777344 0.761626619140625  1.54958337988281 0.958166358398437  L 5.51206181542969 5.00122117480469  L 9.47454026757812 0.958166358398437  C 9.6671386796875 0.761609619140625  9.98259780175781 0.758398793945313  10.1791545410156 0.951065172851562  C 10.3757112802734 1.14369756835938  10.3788881220703 1.45915669042969  10.1862557265625 1.65567944628906  L 5.86791954492188 6.061829078125  Z " fill-rule="nonzero" fill="#000000" stroke="none" transform="matrix(1 0 0 1 397 303 )" />
  </g>
</svg>