<?xml version="1.0" encoding="utf-8"?>
<svg version="1.1" xmlns:xlink="http://www.w3.org/1999/xlink" width="27px" height="27px" xmlns="http://www.w3.org/2000/svg">
  <g transform="matrix(1 0 0 1 -81 -101 )">
    <path d="M 12.0078529365234 18.7221176455078  L 12.0078529365234 20.9599411640625  L 14.2456764814453 20.9599411640625  L 14.2456764814453 18.7221176455078  L 12.0078529365234 18.7221176455078  Z M 15.4400294179688 13.9478823544922  C 14.3203235449219 14.6943529365234  13.7985882539063 15.5885294179688  13.7985882275391 16.5589411640625  L 13.7985882275391 17.2299705820313  L 12.0070588359375 17.2299705820313  L 12.0070588359375 16.4096470634766  C 11.9324117724609 15.0667941269531  12.6042353173828 13.8732352910156  13.7977941269531 12.9774705820313  C 15.1398529628906 12.0086470634766  15.8116764814453 11.0382352910156  15.6623823544922 10.1424705820313  C 15.5130882275391 8.80041174609375  14.7674117724609 8.0539411640625  13.3499117724609 7.97929412695313  C 11.7084706083984 7.90464706347657  10.6642058994141 8.8750588359375  10.2917647089844 10.8889411640625  L 8.27708822753906 10.3664117724609  C 8.87426470898438 7.38291177246094  10.7388529365234 5.96541177246094  13.7231470634766 6.0400588359375  C 16.3342058994141 6.18935296289063  17.6770588359375 7.4575588359375  17.9748529365234 9.91932351855469  C 18.0502941005859 11.4114705820313  17.2291764550781 12.7543235185547  15.4392352910156 13.9478823544922  Z M 13.5 1.56361764550781  C 6.93502941796875 1.56441177246094  1.56441177246094 6.93502941796875  1.56441177246094 13.5  C 1.56441177246094 20.0657647089844  6.93502941796875 25.4371764814453  13.5 25.4371764814453  C 20.0649705820313 25.4371764814453  25.4355882275391 20.0649705820313  25.4355882275391 13.5  C 25.4355882275391 6.93502941796875  20.0657647089844 1.56441177246094  13.5 1.56441177246094  Z M 13.5 26.9277352910156  C 6.11470587304687 26.9285294179688  0.07147058203125 20.8852941269531  0.07147058203125 13.5  C 0.07147058203125 6.11470587304687  6.11470587304687 0.07147058203125  13.5 0.07147058203125  C 20.8852941269531 0.07147058203125  26.9285294179688 6.11470587304687  26.9285294179688 13.5  C 26.9285294179688 20.8852941269531  20.8852941269531 26.9285294179688  13.5 26.9285294179688  Z " fill-rule="nonzero" fill="#999999" stroke="none" transform="matrix(1 0 0 1 81 101 )" />
  </g>
</svg>