<?xml version="1.0" encoding="utf-8"?>
<svg version="1.1" xmlns:xlink="http://www.w3.org/1999/xlink" width="17px" height="11px" xmlns="http://www.w3.org/2000/svg">
  <g transform="matrix(1 0 0 1 -398 -303 )">
    <path d="M 15.8173913108441 5.5  C 14.0711956586702 2.69499999355469  11.6597826216882 1.37500000644531  8.5 1.37500000644531  C 5.34021739780061 1.37500000644531  2.92880434132982 2.69500001289062  1.18260868915591 5.5  C 2.92880434132982 8.30500000644531  5.34021737831182 9.62499999355469  8.5 9.62499999355469  C 11.6597826216882 9.62499999355469  14.0711956586702 8.30499998710938  15.8173913108441 5.5  Z M 16.8152173978006 5.5  C 14.9027174042969 8.80000000644531  12.0755434847571 10.45  8.5 10.45  C 4.92445651524287 10.45  2.09728261519192 8.80000000644531  0.184782602199388 5.5  C 2.09728259570312 2.19999999355469  4.92445651524287 0.55  8.5 0.55  C 12.0755434847571 0.55  14.9027173848081 2.19999999355469  16.8152173978006 5.5  Z M 6.8369565282354 5.5  C 6.8369565282354 6.40749999355469  7.58532609345279 7.14999999355469  8.5 7.14999999355469  C 9.41467390654721 7.14999999355469  10.1630434717646 6.40749999355469  10.1630434717646 5.5  C 10.1630434717646 4.59250000644531  9.41467390654722 3.85000000644531  8.5 3.85000000644531  C 7.58532609345278 3.85000000644531  6.8369565282354 4.59250000644531  6.8369565282354 5.5  Z M 10.9945652173913 5.5  C 10.9945652173913 6.90249999355469  9.91358695002548 7.975  8.5 7.975  C 7.08641304997453 7.975  6.0054347826087 6.90249999355469  6.0054347826087 5.5  C 6.0054347826087 4.09750000644531  7.08641304997453 3.025  8.5 3.025  C 9.91358695002548 3.025  10.9945652173913 4.09750000644531  10.9945652173913 5.5  Z " fill-rule="nonzero" fill="#dcdfe6" stroke="none" transform="matrix(1 0 0 1 398 303 )" />
  </g>
</svg>