<?xml version="1.0" encoding="utf-8"?>
<svg version="1.1" xmlns:xlink="http://www.w3.org/1999/xlink" width="4px" height="8px" xmlns="http://www.w3.org/2000/svg">
  <g transform="matrix(1 0 0 1 -103 -27 )">
    <path d="M 3.43061160714285 7.76197596153844  C 3.3095267857143 7.76199038461539  3.18846874999997 7.7122596153846  3.09607142857146 7.61274038461539  L 0.527575892857158 4.84661057692307  C 0.438851498441636 4.75105869227741  0.389004747836225 4.62146551575484  0.38900000000001 4.48633653846156  L 0.38900000000001 1.10154326923077  C 0.38900000000001 0.820149038461523  0.600848214285747 0.59201923076921  0.862129464285772 0.59201923076921  C 1.12341071428568 0.59201923076921  1.33525892857142 0.820163461538471  1.33525892857142 1.10154326923077  L 1.33525892857142 4.27531249999998  L 3.76521875000003 6.89222115384615  C 3.94997321428571 7.09121634615383  3.94997321428571 7.41378846153845  3.76521875000003 7.61275480769228  C 3.67284821428575 7.71223076923076  3.55173660714286 7.76196153846155  3.43069196428576 7.76199038461539  Z " fill-rule="nonzero" fill="#000000" stroke="none" transform="matrix(1 0 0 1 103 27 )" />
  </g>
</svg>