<?xml version="1.0" encoding="utf-8"?>
<svg version="1.1" xmlns:xlink="http://www.w3.org/1999/xlink" width="12px" height="8px" xmlns="http://www.w3.org/2000/svg">
  <g transform="matrix(1 0 0 1 -728 -28 )">
    <path d="M 6.03130047340574 4.20265478511089  L 9.90944026733507 0.375209629010783  C 10.1460152438709 0.138634652474821  10.4311725816599 0.0203471642067825  10.7649122807018 0.0203471642067825  C 11.0986519797436 0.0203471642067825  11.3838093175325 0.138634652474821  11.6203842940686 0.375209629010783  C 11.8654083769094 0.611784605546859  11.9879204183297 0.894829666759506  11.9879204183297 1.22434481264884  C 11.9879204183297 1.55385995853828  11.8654083769094 1.83690501975104  11.6203842940686 2.07347999628701  L 6.88043565704379 6.788081314397  C 6.77904638138557 6.90636880266504  6.65230978681268 6.98874758913746  6.50022587332535 7.03521767381403  C 6.34814195983779 7.08168775849083  6.18760894004549 7.10069824767675  6.01862681394834 7.09224914137189  C 5.84964468785142 7.08380003506704  5.68277483833049 7.04789133327142  5.51801726538577 6.98452303598492  C 5.35325969244104 6.92115473869853  5.21173716183466 6.83032684592126  5.09344967356662 6.71203935765334  L 0.429542993285736 2.07347999628701  C 0.184518910444922 1.83690501975104  0.0620068690243443 1.55385995853828  0.0620068690243443 1.22434481264884  C 0.0620068690243443 0.894829666759506  0.184518910444922 0.611784605546859  0.429542993285736 0.375209629010783  C 0.547830481553774 0.256922140742859  0.680903905855189 0.168206524541802  0.828763266190094 0.109062780407726  C 0.976622626525227 0.0499190362738773  1.12870654001256 0.0203471642067825  1.28501500665254 0.0203471642067825  C 1.4413234732923 0.0203471642067825  1.59551966335584 0.0499190362738773  1.7476035768434 0.109062780407726  C 1.89968749033073 0.168206524541802  2.03487319120836 0.256922140742859  2.1531606794764 0.375209629010783  L 6.03130047340574 4.20265478511089  Z " fill-rule="nonzero" fill="#8e8c98" stroke="none" transform="matrix(1 0 0 1 728 28 )" />
  </g>
</svg>