<?xml version="1.0" encoding="utf-8"?>
<svg version="1.1" xmlns:xlink="http://www.w3.org/1999/xlink" width="1604px" height="43px" xmlns="http://www.w3.org/2000/svg">
  <defs>
    <mask fill="white" id="clip1">
      <path d="M 0 38  L 0 5  C 0 2.19999999999999  2.40217835262082 0  5.45949625595643 0  L 1598.54050374404 0  C 1601.59782164738 0  1604 2.19999999999999  1604 5  L 1604 38  C 1604 39.4682186141292  1604 43  1604 43  C 1604 43  1599.99467484203 43  1598.54050374404 43  L 5.45949625595643 43  C 3.84304987498575 43  0 43  0 43  C 0 43  0 39.3196011635624  0 38  Z " fill-rule="evenodd" />
    </mask>
  </defs>
  <g transform="matrix(1 0 0 1 -17 -259 )">
    <path d="M 0 38  L 0 5  C 0 2.19999999999999  2.40217835262082 0  5.45949625595643 0  L 1598.54050374404 0  C 1601.59782164738 0  1604 2.19999999999999  1604 5  L 1604 38  C 1604 39.4682186141292  1604 43  1604 43  C 1604 43  1599.99467484203 43  1598.54050374404 43  L 5.45949625595643 43  C 3.84304987498575 43  0 43  0 43  C 0 43  0 39.3196011635624  0 38  Z " fill-rule="nonzero" fill="#f0f5ff" stroke="none" transform="matrix(1 0 0 1 17 259 )" />
    <path d="M 0 38  L 0 5  C 0 2.19999999999999  2.40217835262082 0  5.45949625595643 0  L 1598.54050374404 0  C 1601.59782164738 0  1604 2.19999999999999  1604 5  L 1604 38  C 1604 39.4682186141292  1604 43  1604 43  C 1604 43  1599.99467484203 43  1598.54050374404 43  L 5.45949625595643 43  C 3.84304987498575 43  0 43  0 43  C 0 43  0 39.3196011635624  0 38  Z " stroke-width="2" stroke="#e0e6ed" fill="none" transform="matrix(1 0 0 1 17 259 )" mask="url(#clip1)" />
  </g>
</svg>