<?xml version="1.0" encoding="utf-8"?>
<svg version="1.1" xmlns:xlink="http://www.w3.org/1999/xlink" width="34px" height="34px" xmlns="http://www.w3.org/2000/svg">
  <g transform="matrix(1 0 0 1 -1493 -318 )">
    <path d="M 1493 318  L 1527 318  L 1527 352  L 1493 352  L 1493 318  " fill-rule="nonzero" fill="#cccccc" stroke="none" />
    <path d="M 1495 320  L 1525 320  L 1525 350  L 1495 350  L 1495 320  " fill-rule="nonzero" fill="#ffffff" stroke="none" />
    <path d="M 1513.23 328.2  C 1511.802 328.2  1510.68 327.078  1510.68 325.65  C 1510.68 324.222  1511.802 323.1  1513.23 323.1  C 1514.658 323.1  1515.78 324.222  1515.78 325.65  C 1515.78 327.078  1514.658 328.2  1513.23 328.2  " fill-rule="nonzero" fill="#cccccc" stroke="none" />
    <path d="M 1496 349  L 1496 333.6  L 1503 326.6  L 1512.8 332.2  L 1518.4 330.8  L 1524 332.2  L 1524 349  L 1496 349  " fill-rule="nonzero" fill="#169bd5" stroke="none" />
  </g>
</svg>