<?xml version="1.0" encoding="utf-8"?>
<svg version="1.1" xmlns:xlink="http://www.w3.org/1999/xlink" width="12px" height="11px" xmlns="http://www.w3.org/2000/svg">
  <g transform="matrix(1 0 0 1 -1067 -36 )">
    <path d="M 11.4583333291016 1.30208332910156  C 11.4579135472062 0.928314549515645  11.1550187795859 0.625419781895354  10.78125 0.625  L 9.29166667089844 0.625  L 9.29166667089844 0.354166670898437  C 9.29166667089844 0.204589549984026  9.17041045636363 0.0833333354492187  9.02083333544922 0.0833333354492187  C 8.87125621453481 0.0833333354492187  8.75 0.204589549984026  8.75 0.354166670898437  L 8.75 0.625  L 6.04166667089844 0.625  L 6.04166667089844 0.354166670898437  C 6.04166667089844 0.204589549984026  5.92041045636363 0.0833333354492187  5.77083333544922 0.0833333354492187  C 5.62125621453481 0.0833333354492187  5.5 0.204589549984026  5.5 0.354166670898437  L 5.5 0.625  L 2.79166667089844 0.625  L 2.79166667089844 0.354166670898437  C 2.79166667089844 0.204589549984026  2.67041045636363 0.0833333354492187  2.52083333544922 0.0833333354492187  C 2.37125621453481 0.0833333354492187  2.25 0.204589549984026  2.25 0.354166670898437  L 2.25 0.625  L 0.760416670898437 0.625  C 0.386647886354693 0.625419774900611  0.083753111010338 0.928314544565689  0.0833333291015623 1.30208332910156  L 0.0833333291015623 10.2395833291016  C 0.0837531040155941 10.6133521185953  0.386647881404737 10.9162468959844  0.760416670898437 11  L 10.78125 11  C 11.1550187845359 10.9162468889897  11.457913554201 10.6133521136453  11.4583333291016 10.2395833291016  L 11.4583333291016 1.30208332910156  Z M 0.625 1.30208332910156  C 0.625000007011427 1.22729477184933  0.685628113646203 1.16666667089844  0.760416670898437 1.16666667089844  L 2.25 1.16666667089844  L 2.25 1.4375  C 2.25 1.58707712091441  2.37125621453481 1.70833333544922  2.52083333544922 1.70833333544922  C 2.67041045636363 1.70833333544922  2.79166667089844 1.58707712091441  2.79166667089844 1.4375  L 2.79166667089844 1.16666667089844  L 5.5 1.16666667089844  L 5.5 1.4375  C 5.5 1.58707712091441  5.62125621453481 1.70833333544922  5.77083333544922 1.70833333544922  C 5.92041045636363 1.70833333544922  6.04166667089844 1.58707712091441  6.04166667089844 1.4375  L 6.04166667089844 1.16666667089844  L 8.75 1.16666667089844  L 8.75 1.4375  C 8.75 1.58707712091441  8.87125621453481 1.70833333544922  9.02083333544922 1.70833333544922  C 9.17041045636363 1.70833333544922  9.29166667089844 1.58707712091441  9.29166667089844 1.4375  L 9.29166667089844 1.16666667089844  L 10.78125 1.16666667089844  C 10.8560385572522 1.16666667089844  10.916666663887 1.22729477184933  10.9166666708984 1.30208332910156  L 10.9166666708984 3.33333332910156  L 0.625 3.33333332910156  L 0.625 1.30208332910156  Z M 10.9166666708984 10.2395833291016  C 10.9166666708984 10.3143718913116  10.8560385622101 10.375  10.78125 10.375  L 0.760416670898437 10.375  C 0.685628108688376 10.375  0.625000000000001 10.3143718913116  0.625 10.2395833291016  L 0.625 4  L 10.9166666708984 4  L 10.9166666708984 10.2395833291016  Z M 3.875 5.22916665820312  C 3.875 5.37874377561182  3.75374378830713 5.49999998730469  3.60416667089844 5.49999998730469  C 3.45458955348974 5.49999998730469  3.33333334179687 5.37874377561182  3.33333334179687 5.22916665820312  C 3.33333334179687 5.07958954079443  3.45458955348974 4.95833332910156  3.60416667089844 4.95833332910156  C 3.78472222363281 4.95833332910156  3.42361111816406 4.95833332910156  3.60416667089844 4.95833332910156  C 3.78472222363281 4.95833332910156  3.42361111816406 4.95833332910156  3.60416667089844 4.95833332910156  C 3.75374378830713 4.95833332910156  3.875 5.07958954079443  3.875 5.22916665820312  Z M 5.5 6.85416665820312  C 5.5 7.00374377561182  5.37874378830714 7.12499998730469  5.22916667089844 7.12499998730469  C 5.07958955348974 7.12499998730469  4.95833334179687 7.00374377561182  4.95833334179687 6.85416665820312  C 4.95833334179687 6.70458954079443  5.07958955348974 6.58333332910156  5.22916667089844 6.58333332910156  C 5.37874378830714 6.58333332910156  5.5 6.70458954079443  5.5 6.85416665820312  Z M 5.5 8.47916665820312  C 5.5 8.62874377561182  5.37874378830714 8.74999998730469  5.22916667089844 8.74999998730469  C 5.07958955348974 8.74999998730469  4.95833334179687 8.62874377561182  4.95833334179687 8.47916665820312  C 4.95833334179687 8.32958954079442  5.07958955348974 8.20833332910156  5.22916667089844 8.20833332910156  C 5.37874378830714 8.20833332910156  5.5 8.32958954079442  5.5 8.47916665820312  Z M 3.875 6.85416665820312  C 3.875 7.00374377561182  3.75374378830713 7.12499998730469  3.60416667089844 7.12499998730469  C 3.45458955348974 7.12499998730469  3.33333334179687 7.00374377561182  3.33333334179687 6.85416665820312  C 3.33333334179687 6.70458954079443  3.45458955348974 6.58333332910156  3.60416667089844 6.58333332910156  C 3.75374378830713 6.58333332910156  3.875 6.70458954079443  3.875 6.85416665820312  Z M 2.25 5.22916665820312  C 2.25 5.37874377561182  2.12874378830714 5.49999998730469  1.97916667089844 5.49999998730469  C 1.82958955348974 5.49999998730469  1.70833334179688 5.37874377561182  1.70833334179688 5.22916665820312  C 1.70833334179688 5.07958954079443  1.82958955348974 4.95833332910156  1.97916667089844 4.95833332910156  C 1.61805556542969 4.95833332910156  2.34027777636719 4.95833332910156  1.97916667089844 4.95833332910156  C 1.61805556542969 4.95833332910156  2.34027777636719 4.95833332910156  1.97916667089844 4.95833332910156  C 2.12874378830714 4.95833332910156  2.25 5.07958954079443  2.25 5.22916665820312  Z M 2.25 8.47916665820312  C 2.25 8.62874377561182  2.12874378830714 8.74999998730469  1.97916667089844 8.74999998730469  C 1.82958955348974 8.74999998730469  1.70833334179688 8.62874377561182  1.70833334179688 8.47916665820312  C 1.70833334179688 8.32958954079442  1.82958955348974 8.20833332910156  1.97916667089844 8.20833332910156  C 2.12874378830714 8.20833332910156  2.25 8.32958954079442  2.25 8.47916665820312  Z M 2.25 6.85416665820312  C 2.25 7.00374377561182  2.12874378830714 7.12499998730469  1.97916667089844 7.12499998730469  C 1.82958955348974 7.12499998730469  1.70833334179688 7.00374377561182  1.70833334179688 6.85416665820312  C 1.70833334179688 6.70458954079443  1.82958955348974 6.58333332910156  1.97916667089844 6.58333332910156  C 2.12874378830714 6.58333332910156  2.25 6.70458954079443  2.25 6.85416665820312  Z M 5.5 5.22916665820312  C 5.5 5.37874377561182  5.37874378830714 5.49999998730469  5.22916667089844 5.49999998730469  C 5.07958955348974 5.49999998730469  4.95833334179687 5.37874377561182  4.95833334179687 5.22916665820312  C 4.95833334179687 5.07958954079443  5.07958955348974 4.95833332910156  5.22916667089844 4.95833332910156  C 5.37874378830714 4.95833332910156  5.5 5.07958954079443  5.5 5.22916665820312  Z M 3.875 8.47916665820312  C 3.875 8.62874377561182  3.75374378830713 8.74999998730469  3.60416667089844 8.74999998730469  C 3.45458955348974 8.74999998730469  3.33333334179687 8.62874377561182  3.33333334179687 8.47916665820312  C 3.33333334179687 8.32958954079442  3.45458955348974 8.20833332910156  3.60416667089844 8.20833332910156  C 3.75374378830713 8.20833332910156  3.875 8.32958954079442  3.875 8.47916665820312  Z M 7.66666667089843 5.22916667089844  C 7.66666667089843 5.37874378830713  7.54541045920557 5.5  7.39583334179687 5.5  L 6.85416667089844 5.5  C 6.70458954998403 5.5  6.58333333544922 5.37874378546519  6.58333333544922 5.22916666455078  C 6.58333333544922 5.07958954363637  6.70458954998403 4.95833332910156  6.85416667089844 4.95833332910156  L 7.39583332910156 4.95833332910156  C 7.54541045920557 4.95833332910156  7.66666667089843 5.07958954079443  7.66666667089843 5.22916665820312  Z M 9.83333332910156 5.22916667089844  C 9.83333332910156 5.37874378830713  9.7120771174087 5.5  9.5625 5.5  L 9.02083332910156 5.5  C 8.87125620818715 5.5  8.74999999365234 5.37874378546519  8.74999999365234 5.22916666455078  C 8.74999999365234 5.07958954363637  8.87125620818715 4.95833332910156  9.02083332910156 4.95833332910156  L 9.5625 4.95833332910156  C 9.7120771174087 4.95833332910156  9.83333332910156 5.07958954079443  9.83333332910156 5.22916665820312  Z M 9.83333332910156 6.85416667089844  C 9.83333332910156 7.00374378830714  9.7120771174087 7.125  9.5625 7.125  L 9.02083332910156 7.125  C 8.87125620818715 7.125  8.74999999365234 7.00374378546519  8.74999999365234 6.85416666455078  C 8.74999999365234 6.70458954363637  8.87125620818715 6.58333332910156  9.02083332910156 6.58333332910156  L 9.5625 6.58333332910156  C 9.7120771174087 6.58333332910156  9.83333332910156 6.70458954079443  9.83333332910156 6.85416665820312  Z M 7.66666667089843 6.85416667089844  C 7.66666667089843 7.00374378830714  7.54541045920557 7.125  7.39583334179687 7.125  L 6.85416667089844 7.125  C 6.70458954998403 7.125  6.58333333544922 7.00374378546519  6.58333333544922 6.85416666455078  C 6.58333333544922 6.70458954363637  6.70458954998403 6.58333332910156  6.85416667089844 6.58333332910156  L 7.39583332910156 6.58333332910156  C 7.54541045920557 6.58333332910156  7.66666667089843 6.70458954079443  7.66666667089843 6.85416665820312  Z M 7.66666667089843 8.47916667089844  C 7.66666667089843 8.62874378830714  7.54541045920557 8.75  7.39583334179687 8.75  L 6.85416667089844 8.75  C 6.70458954998403 8.75  6.58333333544922 8.62874378546519  6.58333333544922 8.47916666455078  C 6.58333333544922 8.32958954363637  6.70458954998403 8.20833332910157  6.85416667089844 8.20833332910157  L 7.39583332910156 8.20833332910156  C 7.54541045920557 8.20833332910156  7.66666667089843 8.32958954079443  7.66666667089843 8.47916665820313  Z " fill-rule="nonzero" fill="#c9cbd6" stroke="none" transform="matrix(1 0 0 1 1067 36 )" />
  </g>
</svg>